<svg xmlns="http://www.w3.org/2000/svg" xmlns:xlink="http://www.w3.org/1999/xlink" height="100" width="750"><rect  width="750" height="100" rx="0" ry="0" class="a"/><svg xmlns="http://www.w3.org/2000/svg" xmlns:xlink="http://www.w3.org/1999/xlink" height="100" width="750" viewBox="0 0 75 10"><g font-family="Consolas, Monaco, 'Andale Mono', 'Ubuntu Mono', monospace" font-size="0.1em"><path  class="a" d="M0 0h136v134.602H0z"/><style>@keyframes e{0%{transform:translateX(0)}0%{transform:translateX(-136px)}0.539612%{transform:translateX(-272px)}0.851195%{transform:translateX(-408px)}1.11158%{transform:translateX(-544px)}1.4702%{transform:translateX(-680px)}1.88347%{transform:translateX(-816px)}2.20803%{transform:translateX(-952px)}2.42903%{transform:translateX(-1088px)}2.75579%{transform:translateX(-1224px)}2.97105%{transform:translateX(-1360px)}3.45538%{transform:translateX(-1496px)}3.81569%{transform:translateX(-1632px)}4.22805%{transform:translateX(-1768px)}4.55422%{transform:translateX(-1904px)}4.90752%{transform:translateX(-2040px)}5.27091%{transform:translateX(-2176px)}5.64733%{transform:translateX(-2312px)}5.87108%{transform:translateX(-2448px)}6.15481%{transform:translateX(-2584px)}6.52999%{transform:translateX(-2720px)}6.82164%{transform:translateX(-2856px)}7.24514%{transform:translateX(-2992px)}7.61967%{transform:translateX(-3128px)}7.84881%{transform:translateX(-3264px)}8.2514%{transform:translateX(-3400px)}8.55824%{transform:translateX(-3536px)}8.87389%{transform:translateX(-3672px)}9.14623%{transform:translateX(-3808px)}9.39541%{transform:translateX(-3944px)}9.80076%{transform:translateX(-4080px)}11.9886%{transform:translateX(-4216px)}14.5558%{transform:translateX(-4352px)}100%{transform:translateX(-4488px)}to{transform:translateX(-4488)}}.a{fill:#272822}.g{fill:#FFFFFF;white-space:pre}</style><g style="animation-duration:23.4071s;animation-iteration-count:infinite;animation-name:e;animation-timing-function:steps(1,end)"><svg width="4488"><svg x="4488"><text y="3.670000" class="g" x="2"></text><text y="3.670000" class="g" x="2"><tspan x="2">$ basename /home/user/file.txt&#9608;&#9608; &#9608;</tspan></text></svg><svg x="4352"><text y="3.670000" class="g" x="2"></text><text y="3.670000" class="g" x="2"><tspan x="2">$ basename /home/user/file.txt&#9608;</tspan><tspan x="2" dy="1.2em">file.txt</tspan></text></svg><svg x="4216"><text y="3.670000" class="g" x="2"></text><text y="3.670000" class="g" x="2"><tspan x="2">$ basename /home/user/file.txt&#9608;</tspan><tspan x="2" dy="1.2em">file.txt</tspan></text></svg><svg x="4080"><text y="3.670000" class="g" x="2"></text><text y="3.670000" class="g" x="2"><tspan x="2">$ basename /home/user/file.txt&#9608;</tspan></text></svg><svg x="3944"><text y="3.670000" class="g" x="2"></text><text y="3.670000" class="g" x="2"><tspan x="2">$ basename /home/user/file.tx&#9608;</tspan></text></svg><svg x="3808"><text y="3.670000" class="g" x="2"></text><text y="3.670000" class="g" x="2"><tspan x="2">$ basename /home/user/file.t&#9608;</tspan></text></svg><svg x="3672"><text y="3.670000" class="g" x="2"></text><text y="3.670000" class="g" x="2"><tspan x="2">$ basename /home/user/file.&#9608;</tspan></text></svg><svg x="3536"><text y="3.670000" class="g" x="2"></text><text y="3.670000" class="g" x="2"><tspan x="2">$ basename /home/user/file&#9608;</tspan></text></svg><svg x="3400"><text y="3.670000" class="g" x="2"></text><text y="3.670000" class="g" x="2"><tspan x="2">$ basename /home/user/fil&#9608;</tspan></text></svg><svg x="3264"><text y="3.670000" class="g" x="2"></text><text y="3.670000" class="g" x="2"><tspan x="2">$ basename /home/user/fi&#9608;</tspan></text></svg><svg x="3128"><text y="3.670000" class="g" x="2"></text><text y="3.670000" class="g" x="2"><tspan x="2">$ basename /home/user/f&#9608;</tspan></text></svg><svg x="2992"><text y="3.670000" class="g" x="2"></text><text y="3.670000" class="g" x="2"><tspan x="2">$ basename /home/user/&#9608;</tspan></text></svg><svg x="2856"><text y="3.670000" class="g" x="2"></text><text y="3.670000" class="g" x="2"><tspan x="2">$ basename /home/user&#9608;</tspan></text></svg><svg x="2720"><text y="3.670000" class="g" x="2"></text><text y="3.670000" class="g" x="2"><tspan x="2">$ basename /home/use&#9608;</tspan></text></svg><svg x="2584"><text y="3.670000" class="g" x="2"></text><text y="3.670000" class="g" x="2"><tspan x="2">$ basename /home/us&#9608;</tspan></text></svg><svg x="2448"><text y="3.670000" class="g" x="2"></text><text y="3.670000" class="g" x="2"><tspan x="2">$ basename /home/u&#9608;</tspan></text></svg><svg x="2312"><text y="3.670000" class="g" x="2"></text><text y="3.670000" class="g" x="2"><tspan x="2">$ basename /home/&#9608;</tspan></text></svg><svg x="2176"><text y="3.670000" class="g" x="2"></text><text y="3.670000" class="g" x="2"><tspan x="2">$ basename /home&#9608;</tspan></text></svg><svg x="2040"><text y="3.670000" class="g" x="2"></text><text y="3.670000" class="g" x="2"><tspan x="2">$ basename /hom&#9608;</tspan></text></svg><svg x="1904"><text y="3.670000" class="g" x="2"></text><text y="3.670000" class="g" x="2"><tspan x="2">$ basename /ho&#9608;</tspan></text></svg><svg x="1768"><text y="3.670000" class="g" x="2"></text><text y="3.670000" class="g" x="2"><tspan x="2">$ basename /h&#9608;</tspan></text></svg><svg x="1632"><text y="3.670000" class="g" x="2"></text><text y="3.670000" class="g" x="2"><tspan x="2">$ basename /&#9608;</tspan></text></svg><svg x="1496"><text y="3.670000" class="g" x="2"></text><text y="3.670000" class="g" x="2"><tspan x="2">$ basename &#9608;</tspan></text></svg><svg x="1360"><text y="3.670000" class="g" x="2"></text><text y="3.670000" class="g" x="2"><tspan x="2">$ basename&#9608;</tspan></text></svg><svg x="1224"><text y="3.670000" class="g" x="2"></text><text y="3.670000" class="g" x="2"><tspan x="2">$ basenam&#9608;</tspan></text></svg><svg x="1088"><text y="3.670000" class="g" x="2"></text><text y="3.670000" class="g" x="2"><tspan x="2">$ basena&#9608;</tspan></text></svg><svg x="952"><text y="3.670000" class="g" x="2"></text><text y="3.670000" class="g" x="2"><tspan x="2">$ basen&#9608;</tspan></text></svg><svg x="816"><text y="3.670000" class="g" x="2"></text><text y="3.670000" class="g" x="2"><tspan x="2">$ base&#9608;</tspan></text></svg><svg x="680"><text y="3.670000" class="g" x="2"></text><text y="3.670000" class="g" x="2"><tspan x="2">$ bas&#9608;</tspan></text></svg><svg x="544"><text y="3.670000" class="g" x="2"></text><text y="3.670000" class="g" x="2"><tspan x="2">$ ba&#9608;</tspan></text></svg><svg x="408"><text y="3.670000" class="g" x="2"></text><text y="3.670000" class="g" x="2"><tspan x="2">$ b&#9608;</tspan></text></svg><svg x="272"><text y="3.670000" class="g" x="2"></text><text y="3.670000" class="g" x="2"><tspan x="2">$ &#9608;</tspan></text></svg><svg x="136"><text y="3.670000" class="g" x="2"></text><text y="3.670000" class="g" x="2"><tspan x="2">$&#9608;</tspan></text></svg><svg><use  xlink:href="#a"/><use  xlink:href="#b" x="2.004000"/></svg></svg></g><defs><symbol id="b"><path  fill="#6f7683" d="M0 0h1.102v2.171H0z"/></symbol><symbol id="a"><path  fill="transparent" d="M0 0h136v62H0z"/></symbol></defs></g></svg></svg>