<svg xmlns="http://www.w3.org/2000/svg" xmlns:xlink="http://www.w3.org/1999/xlink" height="100" width="750"><rect  width="750" height="100" rx="0" ry="0" class="a"/><svg xmlns="http://www.w3.org/2000/svg" xmlns:xlink="http://www.w3.org/1999/xlink" height="100" width="750" viewBox="0 0 75 10"><g font-family="Consolas, Monaco, 'Andale Mono', 'Ubuntu Mono', monospace" font-size="0.1em"><path  class="a" d="M0 0h136v134.602H0z"/><style>@keyframes e{0%{transform:translateX(0)}0%{transform:translateX(-136px)}0.586069%{transform:translateX(-272px)}0.924476%{transform:translateX(-408px)}1.20728%{transform:translateX(-544px)}1.59677%{transform:translateX(-680px)}2.04562%{transform:translateX(-816px)}4.84765%{transform:translateX(-952px)}7.19974%{transform:translateX(-1088px)}100%{transform:translateX(-1224px)}to{transform:translateX(-1224)}}.a{fill:#272822}.g{fill:#FFFFFF;white-space:pre}</style><g style="animation-duration:21.5517s;animation-iteration-count:infinite;animation-name:e;animation-timing-function:steps(1,end)"><svg width="1224"><svg x="1224"><text y="3.670000" class="g" x="2"></text><text y="3.670000" class="g" x="2"><tspan x="2">$ date&#9608;&#9608; &#9608;</tspan></text></svg><svg x="1088"><text y="3.670000" class="g" x="2"></text><text y="3.670000" class="g" x="2"><tspan x="2">$ date&#9608;</tspan><tspan x="2" dy="1.2em">Fri 24 Sep 2021 03:04:06 PM EDT</tspan></text></svg><svg x="952"><text y="3.670000" class="g" x="2"></text><text y="3.670000" class="g" x="2"><tspan x="2">$ date&#9608;</tspan><tspan x="2" dy="1.2em">Fri 24 Sep 2021 03:04:06 PM EDT</tspan></text></svg><svg x="816"><text y="3.670000" class="g" x="2"></text><text y="3.670000" class="g" x="2"><tspan x="2">$ date&#9608;</tspan></text></svg><svg x="680"><text y="3.670000" class="g" x="2"></text><text y="3.670000" class="g" x="2"><tspan x="2">$ dat&#9608;</tspan></text></svg><svg x="544"><text y="3.670000" class="g" x="2"></text><text y="3.670000" class="g" x="2"><tspan x="2">$ da&#9608;</tspan></text></svg><svg x="408"><text y="3.670000" class="g" x="2"></text><text y="3.670000" class="g" x="2"><tspan x="2">$ d&#9608;</tspan></text></svg><svg x="272"><text y="3.670000" class="g" x="2"></text><text y="3.670000" class="g" x="2"><tspan x="2">$ &#9608;</tspan></text></svg><svg x="136"><text y="3.670000" class="g" x="2"></text><text y="3.670000" class="g" x="2"><tspan x="2">$&#9608;</tspan></text></svg><svg><use  xlink:href="#a"/><use  xlink:href="#b" x="2.004000"/></svg></svg></g><defs><symbol id="b"><path  fill="#6f7683" d="M0 0h1.102v2.171H0z"/></symbol><symbol id="a"><path  fill="transparent" d="M0 0h136v62H0z"/></symbol></defs></g></svg></svg>