<svg xmlns="http://www.w3.org/2000/svg" xmlns:xlink="http://www.w3.org/1999/xlink" height="100" width="750"><rect  width="750" height="100" rx="0" ry="0" class="a"/><svg xmlns="http://www.w3.org/2000/svg" xmlns:xlink="http://www.w3.org/1999/xlink" height="100" width="750" viewBox="0 0 75 10"><g font-family="Monaco,Consolas,Menlo,'Bitstream Vera Sans Mono','Powerline Symbols',monospace" font-size="1.67"><path  class="a" d="M0 0h136v134.602H0z"/><style>@keyframes e{0%{transform:translateX(0)}0%{transform:translateX(-136px)}0.520852%{transform:translateX(-272px)}0.821603%{transform:translateX(-408px)}1.07293%{transform:translateX(-544px)}1.41909%{transform:translateX(-680px)}1.81799%{transform:translateX(-816px)}2.13127%{transform:translateX(-952px)}2.34458%{transform:translateX(-1088px)}2.65998%{transform:translateX(-1224px)}3.0787%{transform:translateX(-1360px)}3.29867%{transform:translateX(-1496px)}3.64645%{transform:translateX(-1632px)}4.04448%{transform:translateX(-1768px)}4.35931%{transform:translateX(-1904px)}4.70032%{transform:translateX(-2040px)}5.05108%{transform:translateX(-2176px)}5.41441%{transform:translateX(-2312px)}5.63038%{transform:translateX(-2448px)}5.90425%{transform:translateX(-2584px)}6.94045%{transform:translateX(-2720px)}7.22196%{transform:translateX(-2856px)}7.63073%{transform:translateX(-2992px)}7.99225%{transform:translateX(-3128px)}8.21342%{transform:translateX(-3264px)}8.60202%{transform:translateX(-3400px)}8.89818%{transform:translateX(-3536px)}9.20287%{transform:translateX(-3672px)}9.46573%{transform:translateX(-3808px)}9.70625%{transform:translateX(-3944px)}10.0975%{transform:translateX(-4080px)}10.5598%{transform:translateX(-4216px)}10.87%{transform:translateX(-4352px)}11.142%{transform:translateX(-4488px)}11.45%{transform:translateX(-4624px)}11.6749%{transform:translateX(-4760px)}11.8963%{transform:translateX(-4896px)}12.1817%{transform:translateX(-5032px)}12.5763%{transform:translateX(-5168px)}12.8783%{transform:translateX(-5304px)}13.0948%{transform:translateX(-5440px)}13.4598%{transform:translateX(-5576px)}13.6918%{transform:translateX(-5712px)}14.0399%{transform:translateX(-5848px)}14.3759%{transform:translateX(-5984px)}14.7317%{transform:translateX(-6120px)}17.5263%{transform:translateX(-6256px)}100%{transform:translateX(-6392px)}to{transform:translateX(-6392)}}.a{fill:#272822}.g{fill:#FFFFFF;white-space:pre}</style><g style="animation-duration:24.2502s;animation-iteration-count:infinite;animation-name:e;animation-timing-function:steps(1,end)"><svg width="6392"><svg x="6392"><use  xlink:href="#b" y="2" x="46.996000"/><use  xlink:href="#a"/><text y="3.670000" class="g" x="1">$ install --verbose sourcefile /usr/local/bin </text></svg><svg x="6256"><use  xlink:href="#b" y="2" x="45.996000"/><use  xlink:href="#a"/><text y="3.670000" class="g" x="1">$ install --verbose sourcefile /usr/local/bin</text><text y="5.670000" class="g" x="1">'sourcefile' -> 'usr/local/bin/sourcefile'</text></svg><svg x="6120"><use  xlink:href="#b" y="2" x="45.996000"/><use  xlink:href="#a"/><text y="3.670000" class="g" x="1">$ install --verbose sourcefile /usr/local/bin</text></svg><svg x="5984"><use  xlink:href="#b" y="2" x="44.996000"/><use  xlink:href="#a"/><text y="3.670000" class="g" x="1">$ install --verbose sourcefile /usr/local/bi</text></svg><svg x="5848"><use  xlink:href="#b" y="2" x="43.996000"/><use  xlink:href="#a"/><text y="3.670000" class="g" x="1">$ install --verbose sourcefile /usr/local/b</text></svg><svg x="5712"><use  xlink:href="#b" y="2" x="42.996000"/><use  xlink:href="#a"/><text y="3.670000" class="g" x="1">$ install --verbose sourcefile /usr/local/</text></svg><svg x="5576"><use  xlink:href="#b" y="2" x="41.996000"/><use  xlink:href="#a"/><text y="3.670000" class="g" x="1">$ install --verbose sourcefile /usr/local</text></svg><svg x="5440"><use  xlink:href="#b" y="2" x="40.996000"/><use  xlink:href="#a"/><text y="3.670000" class="g" x="1">$ install --verbose sourcefile /usr/loca</text></svg><svg x="5304"><use  xlink:href="#b" y="2" x="39.996000"/><use  xlink:href="#a"/><text y="3.670000" class="g" x="1">$ install --verbose sourcefile /usr/loc</text></svg><svg x="5168"><use  xlink:href="#b" y="2" x="38.996000"/><use  xlink:href="#a"/><text y="3.670000" class="g" x="1">$ install --verbose sourcefile /usr/lo</text></svg><svg x="5032"><use  xlink:href="#b" y="2" x="37.996000"/><use  xlink:href="#a"/><text y="3.670000" class="g" x="1">$ install --verbose sourcefile /usr/l</text></svg><svg x="4896"><use  xlink:href="#b" y="2" x="36.996000"/><use  xlink:href="#a"/><text y="3.670000" class="g" x="1">$ install --verbose sourcefile /usr/</text></svg><svg x="4760"><use  xlink:href="#b" y="2" x="35.996000"/><use  xlink:href="#a"/><text y="3.670000" class="g" x="1">$ install --verbose sourcefile /usr</text></svg><svg x="4624"><use  xlink:href="#b" y="2" x="34.996000"/><use  xlink:href="#a"/><text y="3.670000" class="g" x="1">$ install --verbose sourcefile /us</text></svg><svg x="4488"><use  xlink:href="#b" y="2" x="33.996000"/><use  xlink:href="#a"/><text y="3.670000" class="g" x="1">$ install --verbose sourcefile /u</text></svg><svg x="4352"><use  xlink:href="#b" y="2" x="32.996000"/><use  xlink:href="#a"/><text y="3.670000" class="g" x="1">$ install --verbose sourcefile /</text></svg><svg x="4216"><use  xlink:href="#b" y="2" x="31.996000"/><use  xlink:href="#a"/><text y="3.670000" class="g" x="1">$ install --verbose sourcefile </text></svg><svg x="4080"><use  xlink:href="#b" y="2" x="30.996000"/><use  xlink:href="#a"/><text y="3.670000" class="g" x="1">$ install --verbose sourcefile</text></svg><svg x="3944"><use  xlink:href="#b" y="2" x="29.996000"/><use  xlink:href="#a"/><text y="3.670000" class="g" x="1">$ install --verbose sourcefil</text></svg><svg x="3808"><use  xlink:href="#b" y="2" x="28.996000"/><use  xlink:href="#a"/><text y="3.670000" class="g" x="1">$ install --verbose sourcefi</text></svg><svg x="3672"><use  xlink:href="#b" y="2" x="27.996000"/><use  xlink:href="#a"/><text y="3.670000" class="g" x="1">$ install --verbose sourcef</text></svg><svg x="3536"><use  xlink:href="#b" y="2" x="26.996000"/><use  xlink:href="#a"/><text y="3.670000" class="g" x="1">$ install --verbose source</text></svg><svg x="3400"><use  xlink:href="#b" y="2" x="25.996000"/><use  xlink:href="#a"/><text y="3.670000" class="g" x="1">$ install --verbose sourc</text></svg><svg x="3264"><use  xlink:href="#b" y="2" x="24.996000"/><use  xlink:href="#a"/><text y="3.670000" class="g" x="1">$ install --verbose sour</text></svg><svg x="3128"><use  xlink:href="#b" y="2" x="23.996000"/><use  xlink:href="#a"/><text y="3.670000" class="g" x="1">$ install --verbose sou</text></svg><svg x="2992"><use  xlink:href="#b" y="2" x="22.996000"/><use  xlink:href="#a"/><text y="3.670000" class="g" x="1">$ install --verbose so</text></svg><svg x="2856"><use  xlink:href="#b" y="2" x="21.996000"/><use  xlink:href="#a"/><text y="3.670000" class="g" x="1">$ install --verbose s</text></svg><svg x="2720"><use  xlink:href="#b" y="2" x="20.996000"/><use  xlink:href="#a"/><text y="3.670000" class="g" x="1">$ install --verbose </text></svg><svg x="2584"><use  xlink:href="#b" y="2" x="19.996000"/><use  xlink:href="#a"/><text y="3.670000" class="g" x="1">$ install --verbose</text></svg><svg x="2448"><use  xlink:href="#b" y="2" x="18.996000"/><use  xlink:href="#a"/><text y="3.670000" class="g" x="1">$ install --verbos</text></svg><svg x="2312"><use  xlink:href="#b" y="2" x="17.996000"/><use  xlink:href="#a"/><text y="3.670000" class="g" x="1">$ install --verbo</text></svg><svg x="2176"><use  xlink:href="#b" y="2" x="16.996000"/><use  xlink:href="#a"/><text y="3.670000" class="g" x="1">$ install --verb</text></svg><svg x="2040"><use  xlink:href="#b" y="2" x="15.996000"/><use  xlink:href="#a"/><text y="3.670000" class="g" x="1">$ install --ver</text></svg><svg x="1904"><use  xlink:href="#b" y="2" x="14.996000"/><use  xlink:href="#a"/><text y="3.670000" class="g" x="1">$ install --ve</text></svg><svg x="1768"><use  xlink:href="#b" y="2" x="13.996000"/><use  xlink:href="#a"/><text y="3.670000" class="g" x="1">$ install --v</text></svg><svg x="1632"><use  xlink:href="#b" y="2" x="12.996000"/><use  xlink:href="#a"/><text y="3.670000" class="g" x="1">$ install --</text></svg><svg x="1496"><use  xlink:href="#b" y="2" x="11.996000"/><use  xlink:href="#a"/><text y="3.670000" class="g" x="1">$ install -</text></svg><svg x="1360"><use  xlink:href="#b" y="2" x="10.996000"/><use  xlink:href="#a"/><text y="3.670000" class="g" x="1">$ install </text></svg><svg x="1224"><use  xlink:href="#b" y="2" x="9.996000"/><use  xlink:href="#a"/><text y="3.670000" class="g" x="1">$ install</text></svg><svg x="1088"><use  xlink:href="#b" y="2" x="8.996000"/><use  xlink:href="#a"/><text y="3.670000" class="g" x="1">$ instal</text></svg><svg x="952"><use  xlink:href="#b" y="2" x="7.996000"/><use  xlink:href="#a"/><text y="3.670000" class="g" x="1">$ insta</text></svg><svg x="816"><use  xlink:href="#b" y="2" x="6.996000"/><use  xlink:href="#a"/><text y="3.670000" class="g" x="1">$ inst</text></svg><svg x="680"><use  xlink:href="#b" y="2" x="5.996000"/><use  xlink:href="#a"/><text y="3.670000" class="g" x="1">$ ins</text></svg><svg x="544"><use  xlink:href="#b" y="2" x="4.996000"/><use  xlink:href="#a"/><text y="3.670000" class="g" x="1">$ in</text></svg><svg x="408"><use  xlink:href="#b" y="2" x="3.996000"/><use  xlink:href="#a"/><text y="3.670000" class="g" x="1">$ i</text></svg><svg x="272"><use  xlink:href="#b" y="2" x="2.996000"/><use  xlink:href="#a"/><text y="3.670000" class="g" x="1">$ </text></svg><svg x="136"><use  xlink:href="#b" y="2" x="1.996000"/><use  xlink:href="#a"/><text y="3.670000" class="g" x="1">$</text></svg><svg><use  xlink:href="#a"/><use  xlink:href="#b" x="1.004000"/></svg></svg></g><defs><symbol id="b"><path  fill="#6f7683" d="M0 0h1.102v2.171H0z"/></symbol><symbol id="a"><path  fill="transparent" d="M0 0h136v62H0z"/></symbol></defs></g></svg></svg>