<svg xmlns="http://www.w3.org/2000/svg" xmlns:xlink="http://www.w3.org/1999/xlink" height="100" width="750"><rect  width="750" height="100" rx="0" ry="0" class="a"/><svg xmlns="http://www.w3.org/2000/svg" xmlns:xlink="http://www.w3.org/1999/xlink" height="100" width="750" viewBox="0 0 75 10"><g font-family="Consolas, Monaco, 'Andale Mono', 'Ubuntu Mono', monospace" font-size="0.1em"><path  class="a" d="M0 0h136v134.602H0z"/><style>@keyframes e{0%{transform:translateX(0)}0%{transform:translateX(-136px)}0.545636%{transform:translateX(-272px)}0.860697%{transform:translateX(-408px)}1.12399%{transform:translateX(-544px)}2.1425%{transform:translateX(-680px)}2.56039%{transform:translateX(-816px)}2.88857%{transform:translateX(-952px)}3.11204%{transform:translateX(-1088px)}3.44244%{transform:translateX(-1224px)}3.6601%{transform:translateX(-1360px)}3.89053%{transform:translateX(-1496px)}4.25487%{transform:translateX(-1632px)}4.67183%{transform:translateX(-1768px)}5.00164%{transform:translateX(-1904px)}5.35888%{transform:translateX(-2040px)}5.72633%{transform:translateX(-2176px)}6.10696%{transform:translateX(-2312px)}6.3332%{transform:translateX(-2448px)}6.62009%{transform:translateX(-2584px)}6.99947%{transform:translateX(-2720px)}7.29438%{transform:translateX(-2856px)}7.7226%{transform:translateX(-2992px)}8.10131%{transform:translateX(-3128px)}8.33301%{transform:translateX(-3264px)}10.3933%{transform:translateX(-3400px)}10.7036%{transform:translateX(-3536px)}11.0228%{transform:translateX(-3672px)}11.2982%{transform:translateX(-3808px)}13.602%{transform:translateX(-3944px)}100%{transform:translateX(-4080px)}to{transform:translateX(-4080)}}.a{fill:#272822}.g{fill:#FFFFFF;white-space:pre}</style><g style="animation-duration:23.1487s;animation-iteration-count:infinite;animation-name:e;animation-timing-function:steps(1,end)"><svg width="4080"><svg x="4080"><text y="3.670000" class="g" x="2"></text><text y="3.670000" class="g" x="2"><tspan x="2">$ cd /home/user/projects;pwd&#9608; &#9608;</tspan></text></svg><svg x="3944"><text y="3.670000" class="g" x="2"></text><text y="3.670000" class="g" x="2"><tspan x="2">$ cd /home/user/projects;pwd&#9608;</tspan><tspan x="2" dy="1.2em">/home/user/projects</tspan></text></svg><svg x="3808"><text y="3.670000" class="g" x="2"></text><text y="3.670000" class="g" x="2"><tspan x="2">$ cd /home/user/projects;pwd&#9608;</tspan></text></svg><svg x="3672"><text y="3.670000" class="g" x="2"></text><text y="3.670000" class="g" x="2"><tspan x="2">$ cd /home/user/projects;pw&#9608;</tspan></text></svg><svg x="3536"><text y="3.670000" class="g" x="2"></text><text y="3.670000" class="g" x="2"><tspan x="2">$ cd /home/user/projects;p&#9608;</tspan></text></svg><svg x="3400"><text y="3.670000" class="g" x="2"></text><text y="3.670000" class="g" x="2"><tspan x="2">$ cd /home/user/projects;&#9608;</tspan></text></svg><svg x="3264"><text y="3.670000" class="g" x="2"></text><text y="3.670000" class="g" x="2"><tspan x="2">$ cd /home/user/projects&#9608;</tspan></text></svg><svg x="3128"><text y="3.670000" class="g" x="2"></text><text y="3.670000" class="g" x="2"><tspan x="2">$ cd /home/user/project&#9608;</tspan></text></svg><svg x="2992"><text y="3.670000" class="g" x="2"></text><text y="3.670000" class="g" x="2"><tspan x="2">$ cd /home/user/projec&#9608;</tspan></text></svg><svg x="2856"><text y="3.670000" class="g" x="2"></text><text y="3.670000" class="g" x="2"><tspan x="2">$ cd /home/user/proje&#9608;</tspan></text></svg><svg x="2720"><text y="3.670000" class="g" x="2"></text><text y="3.670000" class="g" x="2"><tspan x="2">$ cd /home/user/proj&#9608;</tspan></text></svg><svg x="2584"><text y="3.670000" class="g" x="2"></text><text y="3.670000" class="g" x="2"><tspan x="2">$ cd /home/user/pro&#9608;</tspan></text></svg><svg x="2448"><text y="3.670000" class="g" x="2"></text><text y="3.670000" class="g" x="2"><tspan x="2">$ cd /home/user/pr&#9608;</tspan></text></svg><svg x="2312"><text y="3.670000" class="g" x="2"></text><text y="3.670000" class="g" x="2"><tspan x="2">$ cd /home/user/p&#9608;</tspan></text></svg><svg x="2176"><text y="3.670000" class="g" x="2"></text><text y="3.670000" class="g" x="2"><tspan x="2">$ cd /home/user/&#9608;</tspan></text></svg><svg x="2040"><text y="3.670000" class="g" x="2"></text><text y="3.670000" class="g" x="2"><tspan x="2">$ cd /home/user&#9608;</tspan></text></svg><svg x="1904"><text y="3.670000" class="g" x="2"></text><text y="3.670000" class="g" x="2"><tspan x="2">$ cd /home/use&#9608;</tspan></text></svg><svg x="1768"><text y="3.670000" class="g" x="2"></text><text y="3.670000" class="g" x="2"><tspan x="2">$ cd /home/us&#9608;</tspan></text></svg><svg x="1632"><text y="3.670000" class="g" x="2"></text><text y="3.670000" class="g" x="2"><tspan x="2">$ cd /home/u&#9608;</tspan></text></svg><svg x="1496"><text y="3.670000" class="g" x="2"></text><text y="3.670000" class="g" x="2"><tspan x="2">$ cd /home/&#9608;</tspan></text></svg><svg x="1360"><text y="3.670000" class="g" x="2"></text><text y="3.670000" class="g" x="2"><tspan x="2">$ cd /home&#9608;</tspan></text></svg><svg x="1224"><text y="3.670000" class="g" x="2"></text><text y="3.670000" class="g" x="2"><tspan x="2">$ cd /hom&#9608;</tspan></text></svg><svg x="1088"><text y="3.670000" class="g" x="2"></text><text y="3.670000" class="g" x="2"><tspan x="2">$ cd /ho&#9608;</tspan></text></svg><svg x="952"><text y="3.670000" class="g" x="2"></text><text y="3.670000" class="g" x="2"><tspan x="2">$ cd /h&#9608;</tspan></text></svg><svg x="816"><text y="3.670000" class="g" x="2"></text><text y="3.670000" class="g" x="2"><tspan x="2">$ cd /&#9608;</tspan></text></svg><svg x="680"><text y="3.670000" class="g" x="2"></text><text y="3.670000" class="g" x="2"><tspan x="2">$ cd &#9608;</tspan></text></svg><svg x="544"><text y="3.670000" class="g" x="2"></text><text y="3.670000" class="g" x="2"><tspan x="2">$ cd&#9608;</tspan></text></svg><svg x="408"><text y="3.670000" class="g" x="2"></text><text y="3.670000" class="g" x="2"><tspan x="2">$ c&#9608;</tspan></text></svg><svg x="272"><text y="3.670000" class="g" x="2"></text><text y="3.670000" class="g" x="2"><tspan x="2">$ &#9608;</tspan></text></svg><svg x="136"><text y="3.670000" class="g" x="2"></text><text y="3.670000" class="g" x="2"><tspan x="2">$&#9608;</tspan></text></svg><svg><use  xlink:href="#a"/><use  xlink:href="#b" x="2.004000"/></svg></svg></g><defs><symbol id="b"><path  fill="#6f7683" d="M0 0h1.102v2.171H0z"/></symbol><symbol id="a"><path  fill="transparent" d="M0 0h136v62H0z"/></symbol></defs></g></svg></svg>