<svg xmlns="http://www.w3.org/2000/svg" xmlns:xlink="http://www.w3.org/1999/xlink" height="100" width="750"><rect  width="750" height="100" rx="0" ry="0" class="a"/><svg xmlns="http://www.w3.org/2000/svg" xmlns:xlink="http://www.w3.org/1999/xlink" height="100" width="750" viewBox="0 0 75 10"><g font-family="Consolas, Monaco, 'Andale Mono', 'Ubuntu Mono', monospace" font-size="0.1em"><path  class="a" d="M0 0h136v134.602H0z"/><style>@keyframes e{0%{transform:translateX(0)}0%{transform:translateX(-136px)}0.573922%{transform:translateX(-272px)}0.905316%{transform:translateX(-408px)}1.18225%{transform:translateX(-544px)}1.56368%{transform:translateX(-680px)}2.00323%{transform:translateX(-816px)}2.92964%{transform:translateX(-952px)}3.16469%{transform:translateX(-1088px)}3.51222%{transform:translateX(-1224px)}3.74117%{transform:translateX(-1360px)}3.98354%{transform:translateX(-1496px)}4.36677%{transform:translateX(-1632px)}4.80535%{transform:translateX(-1768px)}5.15225%{transform:translateX(-1904px)}5.52801%{transform:translateX(-2040px)}5.91451%{transform:translateX(-2176px)}6.31487%{transform:translateX(-2312px)}6.55284%{transform:translateX(-2448px)}9.12306%{transform:translateX(-2584px)}100%{transform:translateX(-2720px)}to{transform:translateX(-2720)}}.a{fill:#272822}.g{fill:#FFFFFF;white-space:pre}</style><g style="animation-duration:22.0078s;animation-iteration-count:infinite;animation-name:e;animation-timing-function:steps(1,end)"><svg width="2720"><svg x="2720"><text y="3.670000" class="g" x="2"></text><text y="3.670000" class="g" x="2"><tspan x="2">$ file archive.zip&#9608; &#9608;</tspan></text></svg><svg x="2584"><text y="3.670000" class="g" x="2"></text><text y="3.670000" class="g" x="2"><tspan x="2">$ file archive.zip&#9608;</tspan><tspan x="2" dy="1.2em">archive.zip: Zip archive data, at least v1.0 to extract</tspan></text></svg><svg x="2448"><text y="3.670000" class="g" x="2"></text><text y="3.670000" class="g" x="2"><tspan x="2">$ file archive.zip&#9608;</tspan></text></svg><svg x="2312"><text y="3.670000" class="g" x="2"></text><text y="3.670000" class="g" x="2"><tspan x="2">$ file archive.zi&#9608;</tspan></text></svg><svg x="2176"><text y="3.670000" class="g" x="2"></text><text y="3.670000" class="g" x="2"><tspan x="2">$ file archive.z&#9608;</tspan></text></svg><svg x="2040"><text y="3.670000" class="g" x="2"></text><text y="3.670000" class="g" x="2"><tspan x="2">$ file archive.&#9608;</tspan></text></svg><svg x="1904"><text y="3.670000" class="g" x="2"></text><text y="3.670000" class="g" x="2"><tspan x="2">$ file archive&#9608;</tspan></text></svg><svg x="1768"><text y="3.670000" class="g" x="2"></text><text y="3.670000" class="g" x="2"><tspan x="2">$ file archiv&#9608;</tspan></text></svg><svg x="1632"><text y="3.670000" class="g" x="2"></text><text y="3.670000" class="g" x="2"><tspan x="2">$ file archi&#9608;</tspan></text></svg><svg x="1496"><text y="3.670000" class="g" x="2"></text><text y="3.670000" class="g" x="2"><tspan x="2">$ file arch&#9608;</tspan></text></svg><svg x="1360"><text y="3.670000" class="g" x="2"></text><text y="3.670000" class="g" x="2"><tspan x="2">$ file arc&#9608;</tspan></text></svg><svg x="1224"><text y="3.670000" class="g" x="2"></text><text y="3.670000" class="g" x="2"><tspan x="2">$ file ar&#9608;</tspan></text></svg><svg x="1088"><text y="3.670000" class="g" x="2"></text><text y="3.670000" class="g" x="2"><tspan x="2">$ file a&#9608;</tspan></text></svg><svg x="952"><text y="3.670000" class="g" x="2"></text><text y="3.670000" class="g" x="2"><tspan x="2">$ file &#9608;</tspan></text></svg><svg x="816"><text y="3.670000" class="g" x="2"></text><text y="3.670000" class="g" x="2"><tspan x="2">$ file&#9608;</tspan></text></svg><svg x="680"><text y="3.670000" class="g" x="2"></text><text y="3.670000" class="g" x="2"><tspan x="2">$ fil&#9608;</tspan></text></svg><svg x="544"><text y="3.670000" class="g" x="2"></text><text y="3.670000" class="g" x="2"><tspan x="2">$ fi&#9608;</tspan></text></svg><svg x="408"><text y="3.670000" class="g" x="2"></text><text y="3.670000" class="g" x="2"><tspan x="2">$ f&#9608;</tspan></text></svg><svg x="272"><text y="3.670000" class="g" x="2"></text><text y="3.670000" class="g" x="2"><tspan x="2">$ &#9608;</tspan></text></svg><svg x="136"><text y="3.670000" class="g" x="2"></text><text y="3.670000" class="g" x="2"><tspan x="2">$&#9608;</tspan></text></svg><svg><use  xlink:href="#a"/><use  xlink:href="#b" x="2.004000"/></svg></svg></g><defs><symbol id="b"><path  fill="#6f7683" d="M0 0h1.102v2.171H0z"/></symbol><symbol id="a"><path  fill="transparent" d="M0 0h136v62H0z"/></symbol></defs></g></svg></svg>