<svg xmlns="http://www.w3.org/2000/svg" xmlns:xlink="http://www.w3.org/1999/xlink" height="100" width="100%"><rect  width="100%" height="100" rx="0" ry="0" class="a"/><svg xmlns="http://www.w3.org/2000/svg" xmlns:xlink="http://www.w3.org/1999/xlink" height="100" width="100%" viewBox="0 0 60 10"><g font-family="Monaco,Consolas,Menlo,'Bitstream Vera Sans Mono','Powerline Symbols',monospace" font-size="1.67"><path  class="a" d="M0 0h136v134.602H0z"/><style>@keyframes e{0%{transform:translateX(0)}0%{transform:translateX(-136px)}0.233777%{transform:translateX(-272px)}0.535137%{transform:translateX(-408px)}0.786976%{transform:translateX(-544px)}1.13383%{transform:translateX(-680px)}1.53354%{transform:translateX(-816px)}1.84746%{transform:translateX(-952px)}2.0612%{transform:translateX(-1088px)}2.91215%{transform:translateX(-1224px)}3.12034%{transform:translateX(-1360px)}3.34075%{transform:translateX(-1496px)}3.68924%{transform:translateX(-1632px)}4.08808%{transform:translateX(-1768px)}4.40354%{transform:translateX(-1904px)}4.74524%{transform:translateX(-2040px)}5.09671%{transform:translateX(-2176px)}5.46079%{transform:translateX(-2312px)}5.67719%{transform:translateX(-2448px)}6.36165%{transform:translateX(-2584px)}6.72453%{transform:translateX(-2720px)}7.00661%{transform:translateX(-2856px)}7.41621%{transform:translateX(-2992px)}7.77845%{transform:translateX(-3128px)}8.00007%{transform:translateX(-3264px)}8.38946%{transform:translateX(-3400px)}8.68622%{transform:translateX(-3536px)}8.99152%{transform:translateX(-3672px)}9.25492%{transform:translateX(-3808px)}9.49592%{transform:translateX(-3944px)}10.651%{transform:translateX(-4080px)}10.8701%{transform:translateX(-4216px)}11.1809%{transform:translateX(-4352px)}11.4534%{transform:translateX(-4488px)}11.7621%{transform:translateX(-4624px)}11.9874%{transform:translateX(-4760px)}12.2093%{transform:translateX(-4896px)}12.4952%{transform:translateX(-5032px)}12.8906%{transform:translateX(-5168px)}13.1932%{transform:translateX(-5304px)}13.4101%{transform:translateX(-5440px)}13.7759%{transform:translateX(-5576px)}14.0084%{transform:translateX(-5712px)}14.3572%{transform:translateX(-5848px)}14.6939%{transform:translateX(-5984px)}17.3594%{transform:translateX(-6120px)}100%{transform:translateX(-6256px)}to{transform:translateX(-6256)}}.a{fill:#000000}.g{fill:#FFFFFF;white-space:pre}</style><g style="animation-duration:24.2012s;animation-iteration-count:infinite;animation-name:e;animation-timing-function:steps(1,end)"><svg width="6256"><svg x="6256"><use  xlink:href="#b" y="1" x="46.996000"/><use  xlink:href="#a"/><text y="2.670000" class="g" x="2">$install --verbose sourcefile /usr/local/bin
'sourcefile' -> 'usr/local/bin/sourcefile' </text></svg><svg x="6120"><use  xlink:href="#b" y="1" x="45.996000"/><use  xlink:href="#a"/><text y="2.670000" class="g" x="2">$install --verbose sourcefile /usr/local/bin
'sourcefile' -> 'usr/local/bin/sourcefile'</text></svg><svg x="5984"><use  xlink:href="#b" y="1" x="45.996000"/><use  xlink:href="#a"/><text y="2.670000" class="g" x="2">$install --verbose sourcefile /usr/local/bin</text></svg><svg x="5848"><use  xlink:href="#b" y="1" x="44.996000"/><use  xlink:href="#a"/><text y="2.670000" class="g" x="2">$install --verbose sourcefile /usr/local/bi</text></svg><svg x="5712"><use  xlink:href="#b" y="1" x="43.996000"/><use  xlink:href="#a"/><text y="2.670000" class="g" x="2">$install --verbose sourcefile /usr/local/b</text></svg><svg x="5576"><use  xlink:href="#b" y="1" x="42.996000"/><use  xlink:href="#a"/><text y="2.670000" class="g" x="2">$install --verbose sourcefile /usr/local/</text></svg><svg x="5440"><use  xlink:href="#b" y="1" x="41.996000"/><use  xlink:href="#a"/><text y="2.670000" class="g" x="2">$install --verbose sourcefile /usr/local</text></svg><svg x="5304"><use  xlink:href="#b" y="1" x="40.996000"/><use  xlink:href="#a"/><text y="2.670000" class="g" x="2">$install --verbose sourcefile /usr/loca</text></svg><svg x="5168"><use  xlink:href="#b" y="1" x="39.996000"/><use  xlink:href="#a"/><text y="2.670000" class="g" x="2">$install --verbose sourcefile /usr/loc</text></svg><svg x="5032"><use  xlink:href="#b" y="1" x="38.996000"/><use  xlink:href="#a"/><text y="2.670000" class="g" x="2">$install --verbose sourcefile /usr/lo</text></svg><svg x="4896"><use  xlink:href="#b" y="1" x="37.996000"/><use  xlink:href="#a"/><text y="2.670000" class="g" x="2">$install --verbose sourcefile /usr/l</text></svg><svg x="4760"><use  xlink:href="#b" y="1" x="36.996000"/><use  xlink:href="#a"/><text y="2.670000" class="g" x="2">$install --verbose sourcefile /usr/</text></svg><svg x="4624"><use  xlink:href="#b" y="1" x="35.996000"/><use  xlink:href="#a"/><text y="2.670000" class="g" x="2">$install --verbose sourcefile /usr</text></svg><svg x="4488"><use  xlink:href="#b" y="1" x="34.996000"/><use  xlink:href="#a"/><text y="2.670000" class="g" x="2">$install --verbose sourcefile /us</text></svg><svg x="4352"><use  xlink:href="#b" y="1" x="33.996000"/><use  xlink:href="#a"/><text y="2.670000" class="g" x="2">$install --verbose sourcefile /u</text></svg><svg x="4216"><use  xlink:href="#b" y="1" x="32.996000"/><use  xlink:href="#a"/><text y="2.670000" class="g" x="2">$install --verbose sourcefile /</text></svg><svg x="4080"><use  xlink:href="#b" y="1" x="31.996000"/><use  xlink:href="#a"/><text y="2.670000" class="g" x="2">$install --verbose sourcefile </text></svg><svg x="3944"><use  xlink:href="#b" y="1" x="30.996000"/><use  xlink:href="#a"/><text y="2.670000" class="g" x="2">$install --verbose sourcefile</text></svg><svg x="3808"><use  xlink:href="#b" y="1" x="29.996000"/><use  xlink:href="#a"/><text y="2.670000" class="g" x="2">$install --verbose sourcefil</text></svg><svg x="3672"><use  xlink:href="#b" y="1" x="28.996000"/><use  xlink:href="#a"/><text y="2.670000" class="g" x="2">$install --verbose sourcefi</text></svg><svg x="3536"><use  xlink:href="#b" y="1" x="27.996000"/><use  xlink:href="#a"/><text y="2.670000" class="g" x="2">$install --verbose sourcef</text></svg><svg x="3400"><use  xlink:href="#b" y="1" x="26.996000"/><use  xlink:href="#a"/><text y="2.670000" class="g" x="2">$install --verbose source</text></svg><svg x="3264"><use  xlink:href="#b" y="1" x="25.996000"/><use  xlink:href="#a"/><text y="2.670000" class="g" x="2">$install --verbose sourc</text></svg><svg x="3128"><use  xlink:href="#b" y="1" x="24.996000"/><use  xlink:href="#a"/><text y="2.670000" class="g" x="2">$install --verbose sour</text></svg><svg x="2992"><use  xlink:href="#b" y="1" x="23.996000"/><use  xlink:href="#a"/><text y="2.670000" class="g" x="2">$install --verbose sou</text></svg><svg x="2856"><use  xlink:href="#b" y="1" x="22.996000"/><use  xlink:href="#a"/><text y="2.670000" class="g" x="2">$install --verbose so</text></svg><svg x="2720"><use  xlink:href="#b" y="1" x="21.996000"/><use  xlink:href="#a"/><text y="2.670000" class="g" x="2">$install --verbose s</text></svg><svg x="2584"><use  xlink:href="#b" y="1" x="20.996000"/><use  xlink:href="#a"/><text y="2.670000" class="g" x="2">$install --verbose </text></svg><svg x="2448"><use  xlink:href="#b" y="1" x="19.996000"/><use  xlink:href="#a"/><text y="2.670000" class="g" x="2">$install --verbose</text></svg><svg x="2312"><use  xlink:href="#b" y="1" x="18.996000"/><use  xlink:href="#a"/><text y="2.670000" class="g" x="2">$install --verbos</text></svg><svg x="2176"><use  xlink:href="#b" y="1" x="17.996000"/><use  xlink:href="#a"/><text y="2.670000" class="g" x="2">$install --verbo</text></svg><svg x="2040"><use  xlink:href="#b" y="1" x="16.996000"/><use  xlink:href="#a"/><text y="2.670000" class="g" x="2">$install --verb</text></svg><svg x="1904"><use  xlink:href="#b" y="1" x="15.996000"/><use  xlink:href="#a"/><text y="2.670000" class="g" x="2">$install --ver</text></svg><svg x="1768"><use  xlink:href="#b" y="1" x="14.996000"/><use  xlink:href="#a"/><text y="2.670000" class="g" x="2">$install --ve</text></svg><svg x="1632"><use  xlink:href="#b" y="1" x="13.996000"/><use  xlink:href="#a"/><text y="2.670000" class="g" x="2">$install --v</text></svg><svg x="1496"><use  xlink:href="#b" y="1" x="12.996000"/><use  xlink:href="#a"/><text y="2.670000" class="g" x="2">$install --</text></svg><svg x="1360"><use  xlink:href="#b" y="1" x="11.996000"/><use  xlink:href="#a"/><text y="2.670000" class="g" x="2">$install -</text></svg><svg x="1224"><use  xlink:href="#b" y="1" x="10.996000"/><use  xlink:href="#a"/><text y="2.670000" class="g" x="2">$install </text></svg><svg x="1088"><use  xlink:href="#b" y="1" x="9.996000"/><use  xlink:href="#a"/><text y="2.670000" class="g" x="2">$install</text></svg><svg x="952"><use  xlink:href="#b" y="1" x="8.996000"/><use  xlink:href="#a"/><text y="2.670000" class="g" x="2">$instal</text></svg><svg x="816"><use  xlink:href="#b" y="1" x="7.996000"/><use  xlink:href="#a"/><text y="2.670000" class="g" x="2">$insta</text></svg><svg x="680"><use  xlink:href="#b" y="1" x="6.996000"/><use  xlink:href="#a"/><text y="2.670000" class="g" x="2">$inst</text></svg><svg x="544"><use  xlink:href="#b" y="1" x="5.996000"/><use  xlink:href="#a"/><text y="2.670000" class="g" x="2">$ins</text></svg><svg x="408"><use  xlink:href="#b" y="1" x="4.996000"/><use  xlink:href="#a"/><text y="2.670000" class="g" x="2">$in</text></svg><svg x="272"><use  xlink:href="#b" y="1" x="3.996000"/><use  xlink:href="#a"/><text y="2.670000" class="g" x="2">$i</text></svg><svg x="136"><use  xlink:href="#b" y="1" x="2.996000"/><use  xlink:href="#a"/><text y="2.670000" class="g" x="2">$</text></svg><svg><use  xlink:href="#a"/><use  xlink:href="#b" x="2.004000"/></svg></svg></g><defs><symbol id="b"><path  fill="#6f7683" d="M0 0h1.102v2.171H0z"/></symbol><symbol id="a"><path  fill="transparent" d="M0 0h136v62H0z"/></symbol></defs></g></svg></svg>