<svg xmlns="http://www.w3.org/2000/svg" xmlns:xlink="http://www.w3.org/1999/xlink" height="100" width="750"><rect  width="750" height="100" rx="0" ry="0" class="a"/><svg xmlns="http://www.w3.org/2000/svg" xmlns:xlink="http://www.w3.org/1999/xlink" height="100" width="750" viewBox="0 0 75 10"><g font-family="Consolas, Monaco, 'Andale Mono', 'Ubuntu Mono', monospace" font-size="0.1em"><path  class="a" d="M0 0h136v134.602H0z"/><style>@keyframes e{0%{transform:translateX(0)}0%{transform:translateX(-136px)}0.572457%{transform:translateX(-272px)}0.903006%{transform:translateX(-408px)}1.17924%{transform:translateX(-544px)}1.55969%{transform:translateX(-680px)}1.99811%{transform:translateX(-816px)}2.34243%{transform:translateX(-952px)}2.827%{transform:translateX(-1088px)}3.17365%{transform:translateX(-1224px)}3.402%{transform:translateX(-1360px)}3.64376%{transform:translateX(-1496px)}4.02601%{transform:translateX(-1632px)}4.46347%{transform:translateX(-1768px)}5.39433%{transform:translateX(-1904px)}5.76913%{transform:translateX(-2040px)}6.15464%{transform:translateX(-2176px)}6.55397%{transform:translateX(-2312px)}6.79134%{transform:translateX(-2448px)}9.35499%{transform:translateX(-2584px)}100%{transform:translateX(-2720px)}to{transform:translateX(-2720)}}.a{fill:#272822}.g{fill:#FFFFFF;white-space:pre}</style><g style="animation-duration:22.0641s;animation-iteration-count:infinite;animation-name:e;animation-timing-function:steps(1,end)"><svg width="2720"><svg x="2720"><text y="3.670000" class="g" x="2"></text><text y="3.670000" class="g" x="2"><tspan x="2">$ nohup sleep 1000&#9608; &#9608;</tspan></text></svg><svg x="2584"><text y="3.670000" class="g" x="2"></text><text y="3.670000" class="g" x="2"><tspan x="2">$ nohup sleep 1000&#9608;</tspan><tspan x="2" dy="1.2em">nohup: ignoring input and appending output to 'nohup.out'</tspan></text></svg><svg x="2448"><text y="3.670000" class="g" x="2"></text><text y="3.670000" class="g" x="2"><tspan x="2">$ nohup sleep 1000&#9608;</tspan></text></svg><svg x="2312"><text y="3.670000" class="g" x="2"></text><text y="3.670000" class="g" x="2"><tspan x="2">$ nohup sleep 100&#9608;</tspan></text></svg><svg x="2176"><text y="3.670000" class="g" x="2"></text><text y="3.670000" class="g" x="2"><tspan x="2">$ nohup sleep 10&#9608;</tspan></text></svg><svg x="2040"><text y="3.670000" class="g" x="2"></text><text y="3.670000" class="g" x="2"><tspan x="2">$ nohup sleep 1&#9608;</tspan></text></svg><svg x="1904"><text y="3.670000" class="g" x="2"></text><text y="3.670000" class="g" x="2"><tspan x="2">$ nohup sleep &#9608;</tspan></text></svg><svg x="1768"><text y="3.670000" class="g" x="2"></text><text y="3.670000" class="g" x="2"><tspan x="2">$ nohup sleep&#9608;</tspan></text></svg><svg x="1632"><text y="3.670000" class="g" x="2"></text><text y="3.670000" class="g" x="2"><tspan x="2">$ nohup slee&#9608;</tspan></text></svg><svg x="1496"><text y="3.670000" class="g" x="2"></text><text y="3.670000" class="g" x="2"><tspan x="2">$ nohup sle&#9608;</tspan></text></svg><svg x="1360"><text y="3.670000" class="g" x="2"></text><text y="3.670000" class="g" x="2"><tspan x="2">$ nohup sl&#9608;</tspan></text></svg><svg x="1224"><text y="3.670000" class="g" x="2"></text><text y="3.670000" class="g" x="2"><tspan x="2">$ nohup s&#9608;</tspan></text></svg><svg x="1088"><text y="3.670000" class="g" x="2"></text><text y="3.670000" class="g" x="2"><tspan x="2">$ nohup &#9608;</tspan></text></svg><svg x="952"><text y="3.670000" class="g" x="2"></text><text y="3.670000" class="g" x="2"><tspan x="2">$ nohup&#9608;</tspan></text></svg><svg x="816"><text y="3.670000" class="g" x="2"></text><text y="3.670000" class="g" x="2"><tspan x="2">$ nohu&#9608;</tspan></text></svg><svg x="680"><text y="3.670000" class="g" x="2"></text><text y="3.670000" class="g" x="2"><tspan x="2">$ noh&#9608;</tspan></text></svg><svg x="544"><text y="3.670000" class="g" x="2"></text><text y="3.670000" class="g" x="2"><tspan x="2">$ no&#9608;</tspan></text></svg><svg x="408"><text y="3.670000" class="g" x="2"></text><text y="3.670000" class="g" x="2"><tspan x="2">$ n&#9608;</tspan></text></svg><svg x="272"><text y="3.670000" class="g" x="2"></text><text y="3.670000" class="g" x="2"><tspan x="2">$ &#9608;</tspan></text></svg><svg x="136"><text y="3.670000" class="g" x="2"></text><text y="3.670000" class="g" x="2"><tspan x="2">$&#9608;</tspan></text></svg><svg><use  xlink:href="#a"/><use  xlink:href="#b" x="2.004000"/></svg></svg></g><defs><symbol id="b"><path  fill="#6f7683" d="M0 0h1.102v2.171H0z"/></symbol><symbol id="a"><path  fill="transparent" d="M0 0h136v62H0z"/></symbol></defs></g></svg></svg>