<svg xmlns="http://www.w3.org/2000/svg" xmlns:xlink="http://www.w3.org/1999/xlink" height="100" width="750"><rect  width="750" height="100" rx="0" ry="0" class="a"/><svg xmlns="http://www.w3.org/2000/svg" xmlns:xlink="http://www.w3.org/1999/xlink" height="100" width="750" viewBox="0 0 75 10"><g font-family="Consolas, Monaco, 'Andale Mono', 'Ubuntu Mono', monospace" font-size="0.1em"><path  class="a" d="M0 0h136v134.602H0z"/><style>@keyframes e{0%{transform:translateX(0)}0%{transform:translateX(-136px)}0.518663%{transform:translateX(-272px)}0.81815%{transform:translateX(-408px)}1.06842%{transform:translateX(-544px)}1.41312%{transform:translateX(-680px)}1.81035%{transform:translateX(-816px)}2.64757%{transform:translateX(-952px)}2.85998%{transform:translateX(-1088px)}3.17406%{transform:translateX(-1224px)}3.59102%{transform:translateX(-1360px)}3.81006%{transform:translateX(-1496px)}4.15638%{transform:translateX(-1632px)}4.55273%{transform:translateX(-1768px)}4.86624%{transform:translateX(-1904px)}5.20582%{transform:translateX(-2040px)}5.5551%{transform:translateX(-2176px)}6.59171%{transform:translateX(-2312px)}6.80677%{transform:translateX(-2448px)}7.07948%{transform:translateX(-2584px)}7.4401%{transform:translateX(-2720px)}7.72043%{transform:translateX(-2856px)}8.93801%{transform:translateX(-2992px)}9.298%{transform:translateX(-3128px)}9.51824%{transform:translateX(-3264px)}9.90521%{transform:translateX(-3400px)}10.2001%{transform:translateX(-3536px)}10.5035%{transform:translateX(-3672px)}11.1399%{transform:translateX(-3808px)}11.3794%{transform:translateX(-3944px)}12.5273%{transform:translateX(-4080px)}12.745%{transform:translateX(-4216px)}13.054%{transform:translateX(-4352px)}13.3248%{transform:translateX(-4488px)}13.6315%{transform:translateX(-4624px)}15.7592%{transform:translateX(-4760px)}17.873%{transform:translateX(-4896px)}100%{transform:translateX(-5032px)}to{transform:translateX(-5032)}}.a{fill:#272822}.g{fill:#FFFFFF;white-space:pre}</style><g style="animation-duration:24.3525s;animation-iteration-count:infinite;animation-name:e;animation-timing-function:steps(1,end)"><svg width="5032"><svg x="5032"><text y="3.670000" class="g" x="2"></text><text y="3.670000" class="g" x="2"><tspan x="2">$ read -p "Enter your name: " name&#9608;&#9608; &#9608;</tspan></text></svg><svg x="4896"><text y="3.670000" class="g" x="2"></text><text y="3.670000" class="g" x="2"><tspan x="2">$ read -p "Enter your name: " name&#9608;</tspan><tspan x="2" dy="1.2em">Enter your name:</tspan></text></svg><svg x="4760"><text y="3.670000" class="g" x="2"></text><text y="3.670000" class="g" x="2"><tspan x="2">$ read -p "Enter your name: " name&#9608;</tspan><tspan x="2" dy="1.2em">Enter your name:</tspan></text></svg><svg x="4624"><text y="3.670000" class="g" x="2"></text><text y="3.670000" class="g" x="2"><tspan x="2">$ read -p "Enter your name: " name&#9608;</tspan></text></svg><svg x="4488"><text y="3.670000" class="g" x="2"></text><text y="3.670000" class="g" x="2"><tspan x="2">$ read -p "Enter your name: " nam&#9608;</tspan></text></svg><svg x="4352"><text y="3.670000" class="g" x="2"></text><text y="3.670000" class="g" x="2"><tspan x="2">$ read -p "Enter your name: " na&#9608;</tspan></text></svg><svg x="4216"><text y="3.670000" class="g" x="2"></text><text y="3.670000" class="g" x="2"><tspan x="2">$ read -p "Enter your name: " n&#9608;</tspan></text></svg><svg x="4080"><text y="3.670000" class="g" x="2"></text><text y="3.670000" class="g" x="2"><tspan x="2">$ read -p "Enter your name: " &#9608;</tspan></text></svg><svg x="3944"><text y="3.670000" class="g" x="2"></text><text y="3.670000" class="g" x="2"><tspan x="2">$ read -p "Enter your name: "&#9608;</tspan></text></svg><svg x="3808"><text y="3.670000" class="g" x="2"></text><text y="3.670000" class="g" x="2"><tspan x="2">$ read -p "Enter your name: &#9608;</tspan></text></svg><svg x="3672"><text y="3.670000" class="g" x="2"></text><text y="3.670000" class="g" x="2"><tspan x="2">$ read -p "Enter your name:&#9608;</tspan></text></svg><svg x="3536"><text y="3.670000" class="g" x="2"></text><text y="3.670000" class="g" x="2"><tspan x="2">$ read -p "Enter your name&#9608;</tspan></text></svg><svg x="3400"><text y="3.670000" class="g" x="2"></text><text y="3.670000" class="g" x="2"><tspan x="2">$ read -p "Enter your nam&#9608;</tspan></text></svg><svg x="3264"><text y="3.670000" class="g" x="2"></text><text y="3.670000" class="g" x="2"><tspan x="2">$ read -p "Enter your na&#9608;</tspan></text></svg><svg x="3128"><text y="3.670000" class="g" x="2"></text><text y="3.670000" class="g" x="2"><tspan x="2">$ read -p "Enter your n&#9608;</tspan></text></svg><svg x="2992"><text y="3.670000" class="g" x="2"></text><text y="3.670000" class="g" x="2"><tspan x="2">$ read -p "Enter your &#9608;</tspan></text></svg><svg x="2856"><text y="3.670000" class="g" x="2"></text><text y="3.670000" class="g" x="2"><tspan x="2">$ read -p "Enter your&#9608;</tspan></text></svg><svg x="2720"><text y="3.670000" class="g" x="2"></text><text y="3.670000" class="g" x="2"><tspan x="2">$ read -p "Enter you&#9608;</tspan></text></svg><svg x="2584"><text y="3.670000" class="g" x="2"></text><text y="3.670000" class="g" x="2"><tspan x="2">$ read -p "Enter yo&#9608;</tspan></text></svg><svg x="2448"><text y="3.670000" class="g" x="2"></text><text y="3.670000" class="g" x="2"><tspan x="2">$ read -p "Enter y&#9608;</tspan></text></svg><svg x="2312"><text y="3.670000" class="g" x="2"></text><text y="3.670000" class="g" x="2"><tspan x="2">$ read -p "Enter &#9608;</tspan></text></svg><svg x="2176"><text y="3.670000" class="g" x="2"></text><text y="3.670000" class="g" x="2"><tspan x="2">$ read -p "Enter&#9608;</tspan></text></svg><svg x="2040"><text y="3.670000" class="g" x="2"></text><text y="3.670000" class="g" x="2"><tspan x="2">$ read -p "Ente&#9608;</tspan></text></svg><svg x="1904"><text y="3.670000" class="g" x="2"></text><text y="3.670000" class="g" x="2"><tspan x="2">$ read -p "Ent&#9608;</tspan></text></svg><svg x="1768"><text y="3.670000" class="g" x="2"></text><text y="3.670000" class="g" x="2"><tspan x="2">$ read -p "En&#9608;</tspan></text></svg><svg x="1632"><text y="3.670000" class="g" x="2"></text><text y="3.670000" class="g" x="2"><tspan x="2">$ read -p "E&#9608;</tspan></text></svg><svg x="1496"><text y="3.670000" class="g" x="2"></text><text y="3.670000" class="g" x="2"><tspan x="2">$ read -p "&#9608;</tspan></text></svg><svg x="1360"><text y="3.670000" class="g" x="2"></text><text y="3.670000" class="g" x="2"><tspan x="2">$ read -p &#9608;</tspan></text></svg><svg x="1224"><text y="3.670000" class="g" x="2"></text><text y="3.670000" class="g" x="2"><tspan x="2">$ read -p&#9608;</tspan></text></svg><svg x="1088"><text y="3.670000" class="g" x="2"></text><text y="3.670000" class="g" x="2"><tspan x="2">$ read -&#9608;</tspan></text></svg><svg x="952"><text y="3.670000" class="g" x="2"></text><text y="3.670000" class="g" x="2"><tspan x="2">$ read &#9608;</tspan></text></svg><svg x="816"><text y="3.670000" class="g" x="2"></text><text y="3.670000" class="g" x="2"><tspan x="2">$ read&#9608;</tspan></text></svg><svg x="680"><text y="3.670000" class="g" x="2"></text><text y="3.670000" class="g" x="2"><tspan x="2">$ rea&#9608;</tspan></text></svg><svg x="544"><text y="3.670000" class="g" x="2"></text><text y="3.670000" class="g" x="2"><tspan x="2">$ re&#9608;</tspan></text></svg><svg x="408"><text y="3.670000" class="g" x="2"></text><text y="3.670000" class="g" x="2"><tspan x="2">$ r&#9608;</tspan></text></svg><svg x="272"><text y="3.670000" class="g" x="2"></text><text y="3.670000" class="g" x="2"><tspan x="2">$ &#9608;</tspan></text></svg><svg x="136"><text y="3.670000" class="g" x="2"></text><text y="3.670000" class="g" x="2"><tspan x="2">$&#9608;</tspan></text></svg><svg><use  xlink:href="#a"/><use  xlink:href="#b" x="2.004000"/></svg></svg></g><defs><symbol id="b"><path  fill="#6f7683" d="M0 0h1.102v2.171H0z"/></symbol><symbol id="a"><path  fill="transparent" d="M0 0h136v62H0z"/></symbol></defs></g></svg></svg>