<svg xmlns="http://www.w3.org/2000/svg" xmlns:xlink="http://www.w3.org/1999/xlink" height="100" width="750"><rect  width="750" height="100" rx="0" ry="0" class="a"/><svg xmlns="http://www.w3.org/2000/svg" xmlns:xlink="http://www.w3.org/1999/xlink" height="100" width="750" viewBox="0 0 75 10"><g font-family="Consolas, Monaco, 'Andale Mono', 'Ubuntu Mono', monospace" font-size="0.1em"><path  class="a" d="M0 0h136v134.602H0z"/><style>@keyframes e{0%{transform:translateX(0)}0%{transform:translateX(-136px)}0.540842%{transform:translateX(-272px)}0.853134%{transform:translateX(-408px)}1.11411%{transform:translateX(-544px)}1.47355%{transform:translateX(-680px)}1.88776%{transform:translateX(-816px)}2.76078%{transform:translateX(-952px)}2.98228%{transform:translateX(-1088px)}3.30978%{transform:translateX(-1224px)}3.52553%{transform:translateX(-1360px)}3.75393%{transform:translateX(-1496px)}4.77027%{transform:translateX(-1632px)}5.18357%{transform:translateX(-1768px)}5.51048%{transform:translateX(-1904px)}5.86458%{transform:translateX(-2040px)}6.89327%{transform:translateX(-2176px)}7.27055%{transform:translateX(-2312px)}7.49481%{transform:translateX(-2448px)}7.77918%{transform:translateX(-2584px)}8.15522%{transform:translateX(-2720px)}8.44754%{transform:translateX(-2856px)}8.872%{transform:translateX(-2992px)}9.94536%{transform:translateX(-3128px)}10.175%{transform:translateX(-3264px)}11.3609%{transform:translateX(-3400px)}11.6684%{transform:translateX(-3536px)}11.9848%{transform:translateX(-3672px)}14.3612%{transform:translateX(-3808px)}100%{transform:translateX(-3944px)}to{transform:translateX(-3944)}}.a{fill:#272822}.g{fill:#FFFFFF;white-space:pre}</style><g style="animation-duration:23.3539s;animation-iteration-count:infinite;animation-name:e;animation-timing-function:steps(1,end)"><svg width="3944"><svg x="3944"><text y="3.670000" class="g" x="2"></text><text y="3.670000" class="g" x="2"><tspan x="2">$ echo 'one two three' | wc&#9608; &#9608;</tspan></text></svg><svg x="3808"><text y="3.670000" class="g" x="2"></text><text y="3.670000" class="g" x="2"><tspan x="2">$ echo 'one two three' | wc&#9608;</tspan><tspan x="2" dy="1.2em">    1    3    14</tspan></text></svg><svg x="3672"><text y="3.670000" class="g" x="2"></text><text y="3.670000" class="g" x="2"><tspan x="2">$ echo 'one two three' | wc&#9608;</tspan></text></svg><svg x="3536"><text y="3.670000" class="g" x="2"></text><text y="3.670000" class="g" x="2"><tspan x="2">$ echo 'one two three' | w&#9608;</tspan></text></svg><svg x="3400"><text y="3.670000" class="g" x="2"></text><text y="3.670000" class="g" x="2"><tspan x="2">$ echo 'one two three' | &#9608;</tspan></text></svg><svg x="3264"><text y="3.670000" class="g" x="2"></text><text y="3.670000" class="g" x="2"><tspan x="2">$ echo 'one two three' |&#9608;</tspan></text></svg><svg x="3128"><text y="3.670000" class="g" x="2"></text><text y="3.670000" class="g" x="2"><tspan x="2">$ echo 'one two three' &#9608;</tspan></text></svg><svg x="2992"><text y="3.670000" class="g" x="2"></text><text y="3.670000" class="g" x="2"><tspan x="2">$ echo 'one two three'&#9608;</tspan></text></svg><svg x="2856"><text y="3.670000" class="g" x="2"></text><text y="3.670000" class="g" x="2"><tspan x="2">$ echo 'one two three&#9608;</tspan></text></svg><svg x="2720"><text y="3.670000" class="g" x="2"></text><text y="3.670000" class="g" x="2"><tspan x="2">$ echo 'one two thre&#9608;</tspan></text></svg><svg x="2584"><text y="3.670000" class="g" x="2"></text><text y="3.670000" class="g" x="2"><tspan x="2">$ echo 'one two thr&#9608;</tspan></text></svg><svg x="2448"><text y="3.670000" class="g" x="2"></text><text y="3.670000" class="g" x="2"><tspan x="2">$ echo 'one two th&#9608;</tspan></text></svg><svg x="2312"><text y="3.670000" class="g" x="2"></text><text y="3.670000" class="g" x="2"><tspan x="2">$ echo 'one two t&#9608;</tspan></text></svg><svg x="2176"><text y="3.670000" class="g" x="2"></text><text y="3.670000" class="g" x="2"><tspan x="2">$ echo 'one two &#9608;</tspan></text></svg><svg x="2040"><text y="3.670000" class="g" x="2"></text><text y="3.670000" class="g" x="2"><tspan x="2">$ echo 'one two&#9608;</tspan></text></svg><svg x="1904"><text y="3.670000" class="g" x="2"></text><text y="3.670000" class="g" x="2"><tspan x="2">$ echo 'one tw&#9608;</tspan></text></svg><svg x="1768"><text y="3.670000" class="g" x="2"></text><text y="3.670000" class="g" x="2"><tspan x="2">$ echo 'one t&#9608;</tspan></text></svg><svg x="1632"><text y="3.670000" class="g" x="2"></text><text y="3.670000" class="g" x="2"><tspan x="2">$ echo 'one &#9608;</tspan></text></svg><svg x="1496"><text y="3.670000" class="g" x="2"></text><text y="3.670000" class="g" x="2"><tspan x="2">$ echo 'one&#9608;</tspan></text></svg><svg x="1360"><text y="3.670000" class="g" x="2"></text><text y="3.670000" class="g" x="2"><tspan x="2">$ echo 'on&#9608;</tspan></text></svg><svg x="1224"><text y="3.670000" class="g" x="2"></text><text y="3.670000" class="g" x="2"><tspan x="2">$ echo 'o&#9608;</tspan></text></svg><svg x="1088"><text y="3.670000" class="g" x="2"></text><text y="3.670000" class="g" x="2"><tspan x="2">$ echo '&#9608;</tspan></text></svg><svg x="952"><text y="3.670000" class="g" x="2"></text><text y="3.670000" class="g" x="2"><tspan x="2">$ echo &#9608;</tspan></text></svg><svg x="816"><text y="3.670000" class="g" x="2"></text><text y="3.670000" class="g" x="2"><tspan x="2">$ echo&#9608;</tspan></text></svg><svg x="680"><text y="3.670000" class="g" x="2"></text><text y="3.670000" class="g" x="2"><tspan x="2">$ ech&#9608;</tspan></text></svg><svg x="544"><text y="3.670000" class="g" x="2"></text><text y="3.670000" class="g" x="2"><tspan x="2">$ ec&#9608;</tspan></text></svg><svg x="408"><text y="3.670000" class="g" x="2"></text><text y="3.670000" class="g" x="2"><tspan x="2">$ e&#9608;</tspan></text></svg><svg x="272"><text y="3.670000" class="g" x="2"></text><text y="3.670000" class="g" x="2"><tspan x="2">$ &#9608;</tspan></text></svg><svg x="136"><text y="3.670000" class="g" x="2"></text><text y="3.670000" class="g" x="2"><tspan x="2">$&#9608;</tspan></text></svg><svg><use  xlink:href="#a"/><use  xlink:href="#b" x="2.004000"/></svg></svg></g><defs><symbol id="b"><path  fill="#6f7683" d="M0 0h1.102v2.171H0z"/></symbol><symbol id="a"><path  fill="transparent" d="M0 0h136v62H0z"/></symbol></defs></g></svg></svg>
